#tb 0: 1/25
#media_type 0: video
#codec_id 0: rawvideo
#dimensions 0: 352x288
#sar 0: 0/1
0,          0,          0,        1,   304128, 0x29a6ca86
0,          1,          1,        1,   304128, 0x82950e6f
0,          2,          2,        1,   304128, 0x8363d1d8
